<svg width="270" height="96" viewBox="0 0 270 96" fill="none" xmlns="http://www.w3.org/2000/svg">
<path d="M260 96H10C4.5 96 0 90.6 0 84V12C0 5.4 4.5 -2.41597e-06 10 -2.41597e-06H260C265.5 -2.41597e-06 270 5.4 270 12V84C270 90.6 265.5 96 260 96Z" fill="#282828"/>
<path d="M260 -2.41597e-06H10C4.5 -2.41597e-06 0 5.4 0 12V84C0 90.6 4.5 96 10 96H260C265.5 96 270 90.6 270 84V12C270 5.4 265.5 -2.41597e-06 260 -2.41597e-06ZM260 1.91999C264.632 1.91999 268.4 6.44256 268.4 12V84C268.4 89.5584 264.632 94.081 260 94.081H10C5.3688 94.081 1.6 89.5584 1.6 84V12C1.6 6.44256 5.3688 1.91999 10 1.91999H260Z" fill="#A6A6A6"/>
<path d="M31.251 31.4842V31.1774C31.251 31.1732 31.251 31.1699 31.251 31.1659C31.251 31.165 31.251 31.1642 31.251 31.1634C31.251 31.0477 31.2541 30.9345 31.2599 30.8247C31.2599 30.823 31.2599 30.8214 31.2599 30.8197C31.2599 30.8182 31.2599 30.8165 31.2605 30.8149C31.2605 30.8115 31.2605 30.8083 31.2605 30.805C31.2605 30.8041 31.2605 30.8033 31.2605 30.8025C31.3231 29.683 31.6674 28.8096 32.213 28.2266L32.365 28.3807C31.6674 29.0164 31.251 30.0767 31.251 31.4842ZM32.3608 28.0799L32.3667 28.074C32.365 28.0765 32.3625 28.0782 32.3608 28.0799Z" fill="url(#paint0_linear_1346_8348)"/>
<path d="M31.1165 74.0094L30.9621 73.8601C30.3571 73.2137 30 72.2099 30 70.9102V71.2161V24.7842C30 24.78 30 24.7769 30 24.7735C30 24.7775 30 24.7809 30 24.7851V25.0918C30 23.6843 30.4164 22.6241 31.114 21.9884L56.8698 47.9997L31.1165 74.0094ZM30 24.771C30 24.6553 30.0031 24.543 30.0089 24.4324C30.0031 24.5422 30 24.6553 30 24.771ZM30.0089 24.4273C30.0089 24.4258 30.0089 24.4242 30.0096 24.4225C30.0089 24.4242 30.0089 24.4258 30.0089 24.4273ZM30.0096 24.4126C30.0096 24.4118 30.0096 24.4109 30.0096 24.4101C30.0096 24.4109 30.0096 24.4118 30.0096 24.4126Z" fill="url(#paint1_linear_1346_8348)"/>
<path d="M65.4536 56.9806L65.6494 56.8683L75.8207 51.0315C76.7904 50.4748 77.4367 49.7998 77.7591 49.0855C77.4375 49.7998 76.791 50.4756 75.8207 51.0324L65.6494 56.8691L65.4536 56.9806ZM65.4561 56.673L56.8696 47.9997L65.4552 39.3279L75.8207 45.2752C77.137 46.0306 77.876 47.0041 77.9994 47.9989C77.9994 47.9997 77.9994 48.0014 77.9994 48.0029C77.876 48.9953 77.137 49.9696 75.8207 50.7248L65.4561 56.673Z" fill="url(#paint2_linear_1346_8348)"/>
<path d="M32.9511 75C32.2316 75 31.6038 74.7638 31.1143 74.3177L31.1151 74.3168C31.6047 74.763 32.2333 75 32.9528 75C33.0151 75 33.0785 74.9983 33.1428 74.9952C33.0777 74.9983 33.0135 75 32.9511 75ZM32.9519 74.6924C32.2325 74.6933 31.6047 74.4562 31.1151 74.0101V74.0095L56.8684 47.9998L65.4548 56.6731L35.2808 73.9881C34.4459 74.4661 33.655 74.6924 32.9519 74.6924ZM31.1078 74.312C31.0623 74.2702 31.0176 74.2259 30.9738 74.1799L31.1078 74.312Z" fill="url(#paint3_linear_1346_8348)"/>
<path d="M56.8654 47.9997L31.1096 21.9884C31.5992 21.5431 32.2261 21.3069 32.9448 21.3069C33.6497 21.3069 34.4413 21.534 35.2778 22.0129L65.451 39.3279L56.8654 47.9997ZM65.6451 39.132L35.2778 21.7064C34.4413 21.2273 33.6497 21.0002 32.9448 21.0002C32.9414 21.0002 32.9392 21.0002 32.9358 21.0002C32.94 21.0002 32.9431 21.0002 32.9481 21.0002C33.6513 21.0002 34.4421 21.2265 35.2778 21.7056L65.6451 39.132Z" fill="url(#paint4_linear_1346_8348)"/>
<path d="M33.1445 74.9952C33.7981 74.9574 34.5217 74.7303 35.2825 74.2949L65.454 56.9808L35.2825 74.2949C34.5223 74.7311 33.7981 74.9574 33.1445 74.9952ZM31.116 74.3177L31.1096 74.3121C31.1119 74.3138 31.1144 74.3161 31.116 74.3177ZM30.9755 74.18L30.9624 74.167V74.1662C30.9674 74.171 30.9713 74.1758 30.9755 74.18Z" fill="#282828"/>
<path d="M65.4554 56.9806L65.6513 56.8683L65.4554 56.9806Z" fill="url(#paint5_linear_1346_8348)"/>
<path d="M32.9545 75C32.235 75 31.6064 74.763 31.1169 74.3168L31.116 74.3177C31.1144 74.316 31.1119 74.3137 31.1096 74.312L30.9755 74.1799C30.9713 74.1757 30.9674 74.1709 30.9624 74.1661L31.1169 74.0101C31.6064 74.4562 32.2342 74.6933 32.9537 74.6924C33.6567 74.6924 34.4477 74.4661 35.2825 73.9881L65.4565 56.6731L65.6499 56.8684L65.454 56.9807L35.2825 74.2948C34.5217 74.7302 33.7981 74.9574 33.1445 74.9952C33.0803 74.9983 33.0169 75 32.9545 75Z" fill="url(#paint6_linear_1346_8348)"/>
<path d="M77.7598 49.0856C77.9196 48.7312 78.0001 48.3672 78.0001 48.0029C78.0001 48.0023 78.0001 48.0015 78.0001 48.0015C78.0001 48.3663 77.9196 48.7304 77.7598 49.0856Z" fill="#282828"/>
<path d="M65.6488 56.8683L65.4554 56.6731L75.8201 50.7249C77.1364 49.9697 77.8754 48.9954 77.9988 48.0029C77.9988 48.3672 77.9184 48.7312 77.7585 49.0856C77.4361 49.7999 76.7898 50.4748 75.8201 51.0316L65.6488 56.8683Z" fill="url(#paint7_linear_1346_8348)"/>
<path d="M77.9993 47.9997V47.9989C77.9985 46.9007 77.2718 45.8026 75.8206 44.9694L65.6493 39.1326H65.6484L65.6493 39.132L75.8206 44.9685C77.2734 45.8018 78.001 46.9015 77.9993 47.9997Z" fill="#404040"/>
<path d="M77.9997 47.999C77.8762 47.0043 77.1372 46.0307 75.8209 45.2754L65.4554 39.328L65.6488 39.1327H65.6496L75.8209 44.9695C77.2721 45.8027 77.9988 46.9008 77.9997 47.999Z" fill="url(#paint8_linear_1346_8348)"/>
<path d="M30 24.7733C30 24.7725 30 24.7717 30 24.7708C30 24.7717 30 24.7725 30 24.7733ZM30.0089 24.4322C30.0089 24.4305 30.0089 24.4288 30.0089 24.4271C30.0089 24.4288 30.0089 24.4305 30.0089 24.4322ZM30.0096 24.4223C30.0096 24.419 30.0096 24.4158 30.0096 24.4124C30.0096 24.4158 30.0096 24.419 30.0096 24.4223ZM30.0096 24.4099C30.1299 22.2531 31.2911 21.0073 32.9338 21C32.2216 21.0042 31.6013 21.2404 31.1157 21.6823V21.6815L31.1099 21.6873C31.0587 21.7339 31.0101 21.7833 30.9621 21.8341C30.4164 22.4171 30.0721 23.2905 30.0096 24.4099Z" fill="#404040"/>
<path d="M65.4557 39.3279L35.2825 22.0129C34.446 21.534 33.6544 21.3069 32.9495 21.3069C32.2309 21.3069 31.6039 21.543 31.1144 21.9883L30.9624 21.8342C31.0104 21.7834 31.0591 21.7341 31.1102 21.6875C31.1119 21.6858 31.1144 21.6841 31.116 21.6824C31.6016 21.2405 32.2219 21.0043 32.9341 21.0001C32.9358 21.0001 32.9381 21.0001 32.9406 21.0001C32.9439 21.0001 32.9462 21.0001 32.9495 21.0001C33.6544 21.0001 34.446 21.2273 35.2825 21.7064L65.6499 39.132L65.649 39.1326L65.4557 39.3279Z" fill="url(#paint9_linear_1346_8348)"/>
<path d="M101.272 27.4519C101.272 29.0061 100.819 30.2439 99.9103 31.1672C98.8785 32.2651 97.5339 32.8144 95.8808 32.8144C94.2977 32.8144 92.9518 32.2579 91.8449 31.1433C90.7361 30.0294 90.1827 28.6483 90.1827 27.0003C90.1827 25.3516 90.7361 23.9712 91.8449 22.8566C92.9518 21.7428 94.2977 21.1855 95.8808 21.1855C96.6663 21.1855 97.4183 21.3413 98.1324 21.6522C98.8464 21.9639 99.4191 22.3776 99.8476 22.8958L98.8835 23.8747C98.1574 22.9943 97.1577 22.5544 95.8808 22.5544C94.7262 22.5544 93.728 22.9661 92.8854 23.79C92.0427 24.6148 91.6216 25.6843 91.6216 27.0003C91.6216 28.3164 92.0427 29.3859 92.8854 30.2107C93.728 31.0346 94.7262 31.4462 95.8808 31.4462C97.1056 31.4462 98.1267 31.0323 98.9442 30.2035C99.4748 29.6634 99.7818 28.9128 99.8638 27.9489H95.8808V26.6119H101.196C101.247 26.9026 101.272 27.1816 101.272 27.4519Z" fill="white"/>
<path d="M101.272 27.4519H101.089C101.088 28.9707 100.651 30.1505 99.7811 31.0361L99.7791 31.0376L99.7784 31.0391C98.7794 32.0991 97.4954 32.6267 95.8809 32.629C94.34 32.6267 93.0504 32.0934 91.9735 31.0122C90.899 29.9288 90.3676 28.6062 90.3656 27.0004C90.3676 25.3938 90.899 24.072 91.9735 22.9893C93.0504 21.9074 94.34 21.3733 95.8809 21.371C96.6428 21.371 97.3683 21.5219 98.0602 21.8226C98.7529 22.1255 99.3 22.5225 99.7076 23.0155L99.8476 22.8958L99.7184 22.7646L98.7543 23.7444L98.8836 23.8748L99.0243 23.756C98.2644 22.832 97.1978 22.3662 95.8809 22.3689C94.6835 22.3674 93.6302 22.8016 92.759 23.6568C91.8794 24.5148 91.4374 25.6444 91.4388 27.0004C91.4374 28.3563 91.8794 29.4859 92.759 30.3439C93.6302 31.1992 94.6835 31.6333 95.8809 31.6318C97.1462 31.634 98.2246 31.1984 99.0735 30.3347C99.6405 29.7577 99.9619 28.9585 100.046 27.9649L100.063 27.7634H96.0637V26.7974H101.196V26.6119L101.016 26.6445C101.066 26.9258 101.089 27.1931 101.089 27.4519H101.272H101.455C101.455 27.1699 101.429 26.8802 101.376 26.5787L101.349 26.4264H95.6981V27.9489V28.1344H99.8639V27.9489L99.6819 27.933C99.6012 28.8665 99.3084 29.5694 98.815 30.0723C98.0295 30.8665 97.0656 31.2585 95.8809 31.2608C94.7691 31.2593 93.8258 30.8708 93.0126 30.0774C92.2071 29.2867 91.8064 28.2773 91.8044 27.0004C91.8064 25.7235 92.2071 24.7141 93.0126 23.9234C93.8258 23.1299 94.7691 22.7415 95.8809 22.74C97.117 22.7429 98.0504 23.1574 98.7437 23.9944L98.8722 24.1495L99.9769 23.027L100.095 22.9067L99.9875 22.7769C99.5384 22.2335 98.94 21.8022 98.2044 21.482C97.4676 21.1608 96.6899 21 95.8809 21C94.2558 20.9985 92.8533 21.5783 91.7158 22.7255C90.574 23.8705 89.9985 25.3098 90 27.0004C89.9985 28.6902 90.574 30.1302 91.7165 31.276C92.8533 32.4225 94.2558 33.0015 95.8809 33C97.5732 33.0015 98.9771 32.431 100.043 31.2955L99.9104 31.1673L100.04 31.2984C100.986 30.3382 101.456 29.0411 101.455 27.4519H101.272Z" fill="white"/>
<path d="M109.698 22.8023H104.703V26.3315H109.207V27.6691H104.703V31.1984H109.698V32.5659H103.295V21.4348H109.698V22.8023Z" fill="white"/>
<path d="M109.698 22.8023V22.6168H104.52V26.5171H109.025V27.4831L104.52 27.4837V31.384H109.515V32.3804H103.478V21.6204H109.515V22.8023H109.698V22.6168V22.8023H109.881V21.4349V21.2494H103.112V32.7514H109.881V31.1985V31.013H104.886V27.8547H109.39V26.3316V26.1461H104.886V22.9879H109.881V22.8023H109.698Z" fill="white"/>
<path d="M115.641 32.5659H114.231V22.8023H111.168V21.4348H118.705V22.8023H115.641V32.5659Z" fill="white"/>
<path d="M115.643 32.5659V32.3804H114.415V22.6168H111.352V21.6204H118.523V22.6168H115.46V32.5659H115.643V32.3804V32.5659H115.825V22.9879H118.889V21.4349V21.2494H110.986V22.8023V22.9879H114.049V32.7514H115.643H115.825V32.5659H115.643Z" fill="white"/>
<path d="M124.158 32.5659V21.4348H125.567V32.5659H124.158Z" fill="white"/>
<path d="M124.158 32.5659H124.34V21.6204H125.384V32.3804H124.158V32.5659H124.34H124.158V32.7514H125.567H125.749V21.2494H124.158H123.975V32.7514H124.158V32.5659Z" fill="white"/>
<path d="M131.819 32.5659H130.409V22.8023H127.345V21.4348H134.882V22.8023H131.819V32.5659Z" fill="white"/>
<path d="M131.819 32.5659V32.3804H130.591V22.6168H127.528V21.6204H134.699V22.6168H131.636V32.5659H131.819V32.3804V32.5659H132.001V22.9879H135.065V21.4349V21.2494H127.162V22.8023V22.9879H130.226V32.7514H131.819H132.001V32.5659H131.819Z" fill="white"/>
<path d="M142.148 30.1955C142.96 31.0296 143.953 31.4462 145.128 31.4462C146.303 31.4462 147.297 31.0296 148.107 30.1955C148.92 29.3614 149.327 28.2952 149.327 27.0003C149.327 25.7054 148.92 24.6393 148.107 23.8052C147.297 22.9711 146.303 22.5544 145.128 22.5544C143.953 22.5544 142.96 22.9711 142.148 23.8052C141.338 24.6393 140.931 25.7054 140.931 27.0003C140.931 28.2952 141.338 29.3614 142.148 30.1955ZM149.15 31.1273C148.071 32.2527 146.73 32.8144 145.128 32.8144C143.524 32.8144 142.184 32.2527 141.108 31.1273C140.029 30.0033 139.492 28.6273 139.492 27.0003C139.492 25.3733 140.029 23.9972 141.108 22.8733C142.184 21.7478 143.524 21.1855 145.128 21.1855C146.722 21.1855 148.059 21.7508 149.143 22.8805C150.224 24.0103 150.766 25.3835 150.766 27.0003C150.766 28.6273 150.226 30.0033 149.15 31.1273Z" fill="white"/>
<path d="M142.148 30.1955L142.018 30.326C142.86 31.1934 143.91 31.634 145.128 31.6318C146.344 31.634 147.396 31.1934 148.237 30.326C149.084 29.4577 149.511 28.3344 149.509 27.0004C149.511 25.6663 149.084 24.543 148.237 23.6748C147.396 22.8073 146.344 22.3667 145.128 22.369C143.91 22.3667 142.86 22.8073 142.018 23.6748C141.172 24.543 140.745 25.6663 140.748 27.0004C140.745 28.3344 141.172 29.4577 142.018 30.326L142.148 30.1955L142.278 30.0651C141.502 29.2642 141.115 28.2569 141.113 27.0004C141.115 25.7439 141.502 24.7365 142.278 23.9356C143.06 23.135 143.995 22.7422 145.128 22.74C146.259 22.7422 147.196 23.135 147.977 23.9356C148.754 24.7365 149.141 25.7439 149.143 27.0004C149.141 28.2569 148.754 29.2642 147.977 30.0651C147.196 30.8658 146.259 31.2585 145.128 31.2608C143.995 31.2585 143.06 30.8658 142.278 30.0651L142.148 30.1955ZM149.149 31.1274L149.019 30.9985C147.97 32.0884 146.689 32.6267 145.128 32.629C143.566 32.6267 142.284 32.0884 141.238 30.9985L141.233 30.9927L141.238 30.9985C140.192 29.9048 139.676 28.586 139.674 27.0004C139.676 25.4148 140.192 24.0959 141.238 23.0023C142.284 21.9124 143.566 21.3733 145.128 21.3711C146.679 21.3733 147.957 21.9146 149.012 23.0103C150.061 24.1089 150.58 25.4257 150.582 27.0004C150.58 28.586 150.063 29.9048 149.019 30.9985L149.149 31.1274L149.281 31.2563C150.389 30.1013 150.949 28.6685 150.948 27.0004C150.949 25.3417 150.387 23.9119 149.273 22.7517C148.16 21.587 146.764 20.998 145.128 21C143.483 20.998 142.083 21.5842 140.976 22.7444V22.7437C139.866 23.8995 139.307 25.3322 139.309 27.0004C139.307 28.6685 139.866 30.1013 140.976 31.2571L140.981 31.2623L140.976 31.2563C142.083 32.4165 143.483 33.0015 145.128 33C146.772 33.0015 148.172 32.4165 149.281 31.2563L149.149 31.1274Z" fill="white"/>
<path d="M152.743 32.5659V21.4348H154.459L159.789 30.094H159.85L159.789 27.9489V21.4348H161.199V32.5659H159.728L154.151 23.487H154.091L154.151 25.6329V32.5659H152.743Z" fill="white"/>
<path d="M152.743 32.5659H152.926V21.6204H154.357L159.688 30.2796H159.85H160.037L159.972 27.9462V21.6204H161.017V32.3804H159.83L154.253 23.3016H154.091H153.903L153.969 25.6359V32.3804H152.743V32.5659H152.926H152.743V32.7514H154.151H154.334V25.63L154.274 23.4821L154.091 23.4871V23.6726H154.151V23.4871L153.996 23.5858L159.627 32.7514H161.199H161.382V21.2494H159.789H159.606V27.9512L159.667 30.0991L159.85 30.0941V29.9086H159.789V30.0941L159.944 29.9956L154.56 21.2494H152.743H152.561V32.7514H152.743V32.5659Z" fill="white"/>
<path d="M204.387 67.8189H207.626V45.7954H204.387V67.8189ZM233.562 53.7288L229.849 63.277H229.738L225.884 53.7288H222.395L228.174 67.0742L224.879 74.4976H228.259L237.164 53.7288H233.562ZM215.193 65.3175C214.13 65.3175 212.651 64.7793 212.651 63.4471C212.651 61.7472 214.495 61.0955 216.085 61.0955C217.51 61.0955 218.179 61.4072 219.045 61.8326C218.793 63.8723 217.062 65.3175 215.193 65.3175ZM215.583 53.2469C213.238 53.2469 210.81 54.2957 209.804 56.619L212.679 57.8371C213.294 56.619 214.438 56.2219 215.639 56.2219C217.314 56.2219 219.017 57.2425 219.045 59.0558V59.2822C218.458 58.9422 217.203 58.4323 215.667 58.4323C212.568 58.4323 209.412 60.1602 209.412 63.3905C209.412 66.3373 211.954 68.2359 214.8 68.2359C216.979 68.2359 218.179 67.2442 218.934 66.0827H219.045V67.7824H222.171V59.3386C222.171 55.4292 219.296 53.2469 215.583 53.2469ZM195.565 56.4097H190.958V48.8606H195.565C197.986 48.8606 199.361 50.8954 199.361 52.6351C199.361 54.3418 197.986 56.4097 195.565 56.4097ZM195.481 45.7954H187.72V67.8189H190.958V59.4749H195.481C199.071 59.4749 202.6 56.8371 202.6 52.6351C202.6 48.4332 199.071 45.7954 195.481 45.7954ZM153.158 65.3215C150.92 65.3215 149.047 63.4201 149.047 60.8085C149.047 58.1695 150.92 56.2392 153.158 56.2392C155.367 56.2392 157.101 58.1695 157.101 60.8085C157.101 63.4201 155.367 65.3215 153.158 65.3215ZM156.877 54.9619H156.766C156.039 54.0823 154.64 53.2876 152.878 53.2876C149.187 53.2876 145.803 56.5797 145.803 60.8085C145.803 65.0092 149.187 68.2731 152.878 68.2731C154.64 68.2731 156.039 67.4782 156.766 66.5706H156.877V67.6489C156.877 70.5159 155.367 72.0484 152.934 72.0484C150.949 72.0484 149.718 70.6005 149.214 69.3803L146.39 70.5723C147.201 72.559 149.355 75 152.934 75C156.738 75 159.954 72.729 159.954 67.1947V53.7418H156.877V54.9619ZM162.191 67.8189H165.435V45.7947H162.191V67.8189ZM170.217 60.5533C170.133 57.6581 172.427 56.1826 174.077 56.1826C175.364 56.1826 176.454 56.835 176.817 57.7724L170.217 60.5533ZM180.285 58.0559C179.671 56.3808 177.796 53.2876 173.965 53.2876C170.161 53.2876 167.001 56.3245 167.001 60.7804C167.001 64.981 170.133 68.2731 174.328 68.2731C177.713 68.2731 179.671 66.1728 180.481 64.9526L177.964 63.2494C177.126 64.4984 175.978 65.3215 174.328 65.3215C172.678 65.3215 171.504 64.555 170.748 63.0512L180.62 58.9071L180.285 58.0559ZM101.634 55.5867V58.7653H109.129C108.905 60.5533 108.318 61.8587 107.423 62.767C106.333 63.8743 104.626 65.0944 101.634 65.0944C97.0195 65.0944 93.4121 61.3198 93.4121 56.6368C93.4121 51.9538 97.0195 48.1787 101.634 48.1787C104.123 48.1787 105.941 49.1723 107.283 50.4495L109.492 48.2075C107.619 46.3907 105.13 45 101.634 45C95.3135 45 90 50.2224 90 56.6368C90 63.0512 95.3135 68.2731 101.634 68.2731C105.046 68.2731 107.619 67.1384 109.632 65.0092C111.702 62.9088 112.345 59.9573 112.345 57.5735C112.345 56.835 112.289 56.1545 112.177 55.5867H101.634ZM120.866 65.3215C118.628 65.3215 116.699 63.4483 116.699 60.7804C116.699 58.0841 118.628 56.2392 120.866 56.2392C123.103 56.2392 125.033 58.0841 125.033 60.7804C125.033 63.4483 123.103 65.3215 120.866 65.3215ZM120.866 53.2876C116.783 53.2876 113.454 56.4379 113.454 60.7804C113.454 65.0944 116.783 68.2731 120.866 68.2731C124.949 68.2731 128.277 65.0944 128.277 60.7804C128.277 56.4379 124.949 53.2876 120.866 53.2876ZM137.033 65.3215C134.796 65.3215 132.866 63.4483 132.866 60.7804C132.866 58.0841 134.796 56.2392 137.033 56.2392C139.27 56.2392 141.2 58.0841 141.2 60.7804C141.2 63.4483 139.27 65.3215 137.033 65.3215ZM137.033 53.2876C132.95 53.2876 129.622 56.4379 129.622 60.7804C129.622 65.0944 132.95 68.2731 137.033 68.2731C141.116 68.2731 144.444 65.0944 144.444 60.7804C144.444 56.4379 141.116 53.2876 137.033 53.2876Z" fill="white"/>
<defs>
<linearGradient id="paint0_linear_1346_8348" x1="55.837" y1="30.6868" x2="20.6043" y2="65.5723" gradientUnits="userSpaceOnUse">
<stop stop-color="#40B8FF"/>
<stop offset="0.00657445" stop-color="#40B9FF"/>
<stop offset="0.2601" stop-color="#40CEFF"/>
<stop offset="0.5122" stop-color="#40DDFF"/>
<stop offset="0.7604" stop-color="#40E7FF"/>
<stop offset="1" stop-color="#40EAFF"/>
</linearGradient>
<linearGradient id="paint1_linear_1346_8348" x1="54.586" y1="24.2944" x2="19.3534" y2="59.1799" gradientUnits="userSpaceOnUse">
<stop stop-color="#00A0FF"/>
<stop offset="0.00657445" stop-color="#00A1FF"/>
<stop offset="0.2601" stop-color="#00BEFF"/>
<stop offset="0.5122" stop-color="#00D2FF"/>
<stop offset="0.7604" stop-color="#00DFFF"/>
<stop offset="1" stop-color="#00E3FF"/>
</linearGradient>
<linearGradient id="paint2_linear_1346_8348" x1="79.6032" y1="48.001" x2="29.3029" y2="48.001" gradientUnits="userSpaceOnUse">
<stop stop-color="#FFE000"/>
<stop offset="0.4087" stop-color="#FFBD00"/>
<stop offset="0.7754" stop-color="#FFA500"/>
<stop offset="1" stop-color="#FF9C00"/>
</linearGradient>
<linearGradient id="paint3_linear_1346_8348" x1="60.8775" y1="52.8187" x2="13.0995" y2="100.126" gradientUnits="userSpaceOnUse">
<stop stop-color="#FF3A44"/>
<stop offset="1" stop-color="#C31162"/>
</linearGradient>
<linearGradient id="paint4_linear_1346_8348" x1="24.434" y1="6.37862" x2="45.7688" y2="27.5032" gradientUnits="userSpaceOnUse">
<stop stop-color="#32A071"/>
<stop offset="0.0685" stop-color="#2DA771"/>
<stop offset="0.4762" stop-color="#15CF74"/>
<stop offset="0.8009" stop-color="#06E775"/>
<stop offset="1" stop-color="#00F076"/>
</linearGradient>
<linearGradient id="paint5_linear_1346_8348" x1="79.6055" y1="48.0009" x2="29.3038" y2="48.0009" gradientUnits="userSpaceOnUse">
<stop stop-color="#CCB300"/>
<stop offset="0.4087" stop-color="#CC9700"/>
<stop offset="0.7754" stop-color="#CC8400"/>
<stop offset="1" stop-color="#CC7D00"/>
</linearGradient>
<linearGradient id="paint6_linear_1346_8348" x1="60.8792" y1="52.8187" x2="13.1012" y2="100.126" gradientUnits="userSpaceOnUse">
<stop stop-color="#CC2E36"/>
<stop offset="1" stop-color="#9C0E4E"/>
</linearGradient>
<linearGradient id="paint7_linear_1346_8348" x1="79.6026" y1="48.001" x2="29.3022" y2="48.001" gradientUnits="userSpaceOnUse">
<stop stop-color="#E0C500"/>
<stop offset="0.4087" stop-color="#E0A600"/>
<stop offset="0.7754" stop-color="#E09100"/>
<stop offset="1" stop-color="#E08900"/>
</linearGradient>
<linearGradient id="paint8_linear_1346_8348" x1="79.6034" y1="48.0011" x2="29.3031" y2="48.0011" gradientUnits="userSpaceOnUse">
<stop stop-color="#FFE840"/>
<stop offset="0.4087" stop-color="#FFCE40"/>
<stop offset="0.7754" stop-color="#FFBC40"/>
<stop offset="1" stop-color="#FFB540"/>
</linearGradient>
<linearGradient id="paint9_linear_1346_8348" x1="24.4388" y1="6.37858" x2="45.7736" y2="27.5032" gradientUnits="userSpaceOnUse">
<stop stop-color="#65B895"/>
<stop offset="0.0685" stop-color="#62BD95"/>
<stop offset="0.4762" stop-color="#50DB97"/>
<stop offset="0.8009" stop-color="#44ED98"/>
<stop offset="1" stop-color="#40F498"/>
</linearGradient>
</defs>
</svg>
